# xmcd CD database file
#
# Track frame offsets:
#	150
#	16107
#	37020
#	49342
#	72257
#	93212
#	110427
#	132480
#	156960
#	173780
#	197342
#	209387
#	230920
#	244850
#	270532
#	288705
#	313505
#
# Disc length: 4405 seconds
#
# Revision: 1
# Processed by: cddbd v1.5PL3 Copyright (c) Steve Scherf et al.
# Submitted via: Feurio! 1.67 - http://www.feurio.com
#
DISCID=f7113311
DTITLE=John Lee Hooker - Get Back Home
DYEAR=1969
DGENRE=Blues
TTITLE0=Get Back Home In The USA
TTITLE1=I Had A Dream Last Night
TTITLE2=Boogie Chillen
TTITLE3=T.B. Is Killing Me
TTITLE4=Cold Chills
TTITLE5=Love Affair
TTITLE6=Little Rain
TTITLE7=When My First Wife Left Me
TTITLE8=Big Boos Lady
TTITLE9=Back To Your Mother
TTITLE10=I Wanna Ramble
TTITLE11=Sittin' Here Thinkin'
TTITLE12=Hi-Heel Sneakers
TTITLE13=I'm So Worried Baby
TTITLE14=I'm Going Upstairs
TTITLE15=Crazy 'Bout You
TTITLE16=Boom Boom
EXTD=
EXTT0=
EXTT1=
EXTT2=
EXTT3=
EXTT4=
EXTT5=
EXTT6=
EXTT7=
EXTT8=
EXTT9=
EXTT10=
EXTT11=
EXTT12=
EXTT13=
EXTT14=
EXTT15=
EXTT16=
PLAYORDER=
